<?xml version="1.0" encoding="UTF-8" standalone="no"?>
<!-- Created with Inkscape (http://www.inkscape.org/) -->

<svg
   width="78.581253mm"
   height="78.581253mm"
   viewBox="0 0 78.581253 78.581253"
   version="1.1"
   id="svg5"
   inkscape:version="1.1.1 (1:1.1+202109281949+c3084ef5ed)"
   sodipodi:docname="repo-barcode.svg"
   xmlns:inkscape="http://www.inkscape.org/namespaces/inkscape"
   xmlns:sodipodi="http://sodipodi.sourceforge.net/DTD/sodipodi-0.dtd"
   xmlns="http://www.w3.org/2000/svg"
   xmlns:svg="http://www.w3.org/2000/svg">
  <sodipodi:namedview
     id="namedview7"
     pagecolor="#ffffff"
     bordercolor="#999999"
     borderopacity="1"
     inkscape:pageshadow="0"
     inkscape:pageopacity="0"
     inkscape:pagecheckerboard="0"
     inkscape:document-units="mm"
     showgrid="false"
     fit-margin-top="0"
     fit-margin-left="0"
     fit-margin-right="0"
     fit-margin-bottom="0"
     inkscape:zoom="1.215281"
     inkscape:cx="139.47392"
     inkscape:cy="122.19396"
     inkscape:window-width="1920"
     inkscape:window-height="1024"
     inkscape:window-x="0"
     inkscape:window-y="27"
     inkscape:window-maximized="1"
     inkscape:current-layer="layer1" />
  <defs
     id="defs2" />
  <g
     inkscape:label="Layer 1"
     inkscape:groupmode="layer"
     id="layer1"
     transform="translate(-97.958477,-168.22881)">
    <path
       style="fill:#000000;stroke-width:0.264583"
       d="m 97.958477,238.47569 v -8.33438 h 8.334373 8.33438 v 8.33438 8.33437 h -8.33438 -8.334373 z m 14.287503,0 v -5.95313 h -5.95313 -5.95312 v 5.95313 5.95312 h 5.95312 5.95313 z m -9.525,0 v -3.57188 h 3.57187 3.57188 v 3.57188 3.57187 h -3.57188 -3.57187 z m 14.2875,2.38125 v -5.95313 h 2.38125 2.38125 v -1.19062 -1.19063 h -2.38125 -2.38125 v -2.38125 -2.38125 h -2.38125 -2.38125 v -1.19062 -1.19063 h 1.19062 1.19063 v -1.19062 -1.19063 h -1.19063 -1.19062 v -1.19062 -1.19063 h -1.19063 -1.19062 v -1.19062 -1.19063 h -1.19063 -1.19062 v 2.38125 2.38125 h 1.19062 1.19063 v 2.38125 2.38125 h -1.19063 -1.19062 v -1.19062 -1.19063 h -1.19063 -1.19062 v 1.19063 1.19062 h -1.19063 -1.19062 v -2.38125 -2.38125 h 1.19062 1.19063 v -1.19062 -1.19063 h -2.38125 -2.38125 v 3.57188 3.57187 h -1.190629 -1.190624 v -9.525 -9.525 h 2.381253 2.38125 v -2.38125 -2.38125 h -2.38125 -2.381253 v -1.19062 -1.19063 h 2.381253 2.38125 v -2.38125 -2.38125 h -1.19063 -1.19062 v -1.19062 -1.19063 h -1.190629 -1.190624 v -1.19062 -1.19063 h 2.381253 2.38125 v -1.19062 -1.19063 h -2.38125 -2.381253 v -1.19062 -1.19063 h 5.953123 5.95313 v 1.19063 1.19062 h -1.19063 -1.19062 v 1.19063 1.19062 h 3.57187 3.57188 v -1.19062 -1.19063 h -1.19063 -1.19062 v -1.19062 -1.19063 h 3.57187 3.57188 v -1.19062 -1.19063 h -1.19063 -1.19062 v -2.38125 -2.38125 h 1.19062 1.19063 v -1.19062 -1.19063 h -1.19063 -1.19062 v -1.19062 -1.19063 h 3.57187 3.57188 v 1.19063 1.19062 h -1.19063 -1.19062 v 2.38125 2.38125 h 1.19062 1.19063 v -1.19062 -1.19063 h 2.38125 2.38125 v 2.38125 2.38125 h -1.19063 -1.19062 v 2.38125 2.38125 h 4.7625 4.7625 v -3.57187 -3.57188 h 1.19062 1.19063 v 2.38125 2.38125 h 1.19062 1.19063 v 1.19063 1.19062 h 1.19062 1.19063 v -1.19062 -1.19063 h 1.19062 1.19063 v -3.57187 -3.57188 h -1.19063 -1.19062 v -1.19062 -1.19063 h 1.19062 1.19063 v -1.19062 -1.19063 h -2.38125 -2.38125 v 1.19063 1.19062 h -1.19063 -1.19062 v 1.19063 1.19062 h -2.38125 -2.38125 v -1.19062 -1.19063 h -1.19063 -1.19062 v -1.19062 -1.19063 h -1.19063 -1.19062 v 1.19063 1.19062 h -1.19063 -1.19062 v -2.38125 -2.38125 h 1.19062 1.19063 v -1.19062 -1.19063 h -1.19063 -1.19062 v -1.19062 -1.19063 h 4.7625 4.7625 v 1.19063 1.19062 h 1.19062 1.19063 v 1.19063 1.19062 h -1.19063 -1.19062 v 2.38125 2.38125 h 1.19062 1.19063 v -1.19062 -1.19063 h 1.19062 1.19063 v -1.19062 -1.19063 h 2.38125 2.38125 v -1.19062 -1.19063 h -1.19063 -1.19062 v -1.19062 -1.19063 h 3.57187 3.57188 v 2.38125 2.38125 h 1.19062 1.19063 v 1.19063 1.19062 h 1.19062 1.19063 v -2.38125 -2.38125 h -1.19063 -1.19062 v -1.19062 -1.19063 h 1.19062 1.19063 v 1.19063 1.19062 h 1.19062 1.19063 v 3.57188 3.57187 h -1.19063 -1.19062 v 1.19063 1.19062 h -1.19063 -1.19062 v 2.38125 2.38125 h 1.19062 1.19063 v -1.19062 -1.19063 h 1.19062 1.19063 v 1.19063 1.19062 h -1.19063 -1.19062 v 1.19063 1.19062 h 2.38125 2.38125 v 1.19063 1.19062 h 1.19062 1.19063 v -1.19062 -1.19063 h 1.19062 1.19063 v 1.19063 1.19062 h -1.19063 -1.19062 v 1.19063 1.19062 h 3.57187 3.57188 v -1.19062 -1.19063 h -1.19063 -1.19062 v -1.19062 -1.19063 h 1.19062 1.19063 v 1.19063 1.19062 h 1.19062 1.19063 v -1.19062 -1.19063 h 1.19062 1.19063 v 1.19063 1.19062 h 1.19062 1.19063 v 1.19063 1.19062 h -1.19063 -1.19062 v 1.19063 1.19062 h -1.19063 -1.19062 v 1.19063 1.19062 h -1.19063 -1.19062 v 1.19063 1.19062 h -2.38125 -2.38125 v 1.19063 1.19062 h 1.19062 1.19063 v 1.19063 1.19062 h -1.19063 -1.19062 v 1.19063 1.19062 h 1.19062 1.19063 v 1.19063 1.19062 h 1.19062 1.19063 v 2.38125 2.38125 h 1.19062 1.19063 v -3.57187 -3.57188 h -1.19063 -1.19062 v -1.19062 -1.19063 h 1.19062 1.19063 v -2.38125 -2.38125 h 2.38125 2.38125 v 1.19063 1.19062 h -1.19063 -1.19062 v 1.19063 1.19062 h -1.19063 -1.19062 v 1.19063 1.19062 h 1.19062 1.19063 v 1.19063 1.19062 h 1.19062 1.19063 v 1.19063 1.19062 h -1.19063 -1.19062 v 1.19063 1.19062 h -1.19063 -1.19062 v 1.19063 1.19062 h 1.19062 1.19063 v 1.19063 1.19062 h 1.19062 1.19063 v 1.19063 1.19062 h -1.19063 -1.19062 v 1.19063 1.19062 h -1.19063 -1.19062 v 1.19063 1.19062 h -2.38125 -2.38125 v 1.19063 1.19062 h 2.38125 2.38125 v 1.19063 1.19062 h 1.19062 1.19063 v -2.38125 -2.38125 h 1.19062 1.19063 v 2.38125 2.38125 h -1.19063 -1.19062 v 1.19063 1.19062 h 1.19062 1.19063 v 1.19063 1.19062 h -1.19063 -1.19062 v 1.19063 1.19062 h 1.19062 1.19063 v 1.19063 1.19062 h -2.38125 -2.38125 v 2.38125 2.38125 h 1.19062 1.19063 v 1.19063 1.19062 h -1.19063 -1.19062 v -1.19062 -1.19063 h -1.19063 -1.19062 v 1.19063 1.19062 h -1.19063 -1.19062 v -3.57187 -3.57188 h -2.38125 -2.38125 v 1.19063 1.19062 h 1.19062 1.19063 v 1.19063 1.19062 h -1.19063 -1.19062 v -1.19062 -1.19063 h -1.19063 -1.19062 v -1.19062 -1.19063 h -1.19063 -1.19062 v 1.19063 1.19062 h -1.19063 -1.19062 v 1.19063 1.19062 h 2.38125 2.38125 v 1.19063 1.19062 h -4.7625 -4.7625 v -1.19062 -1.19063 h -1.19063 -1.19062 v 1.19063 1.19062 h -1.19063 -1.19062 v -3.57187 -3.57188 h -1.19063 -1.19062 v -2.38125 -2.38125 h 1.19062 1.19063 v -2.38125 -2.38125 h -3.57188 -3.57187 v 1.19063 1.19062 h -3.57188 -3.57187 v 1.19063 1.19062 h 4.7625 4.7625 v 1.19063 1.19062 h -1.19063 -1.19062 v 1.19063 1.19062 h 1.19062 1.19063 v 1.19063 1.19062 h 1.19062 1.19063 v 1.19063 1.19062 h -1.19063 -1.19062 v 1.19063 1.19062 h -1.19063 -1.19062 v -1.19062 -1.19063 h 1.19062 1.19063 v -1.19062 -1.19063 h -2.38125 -2.38125 v 1.19063 1.19062 h -2.38125 -2.38125 v -1.19062 -1.19063 h 1.19062 1.19063 v -1.19062 -1.19063 h 1.19062 1.19063 v -1.19062 -1.19063 h -2.38125 -2.38125 v -1.19062 -1.19063 h -1.19063 -1.19062 v 1.19063 1.19062 h -1.19063 -1.19062 v -2.38125 -2.38125 h 1.19062 1.19063 v -1.19062 -1.19063 h -1.19063 -1.19062 v -1.19062 -1.19063 h -1.19063 -1.19062 v 1.19063 1.19062 h -1.19063 -1.19062 v 1.19063 1.19062 h 1.19062 1.19063 v 1.19063 1.19062 h -1.19063 -1.19062 v 5.95313 5.95312 h -2.38125 -2.38125 z m 35.71875,2.38125 v -1.19063 h 1.19062 1.19063 v -1.19062 -1.19063 h 1.19062 1.19063 v -1.19062 -1.19063 h -1.19063 -1.19062 v -1.19062 -1.19063 h -1.19063 -1.19062 v 1.19063 1.19062 h -1.19063 -1.19062 v -1.19062 -1.19063 h -2.38125 -2.38125 v 2.38125 2.38125 h 1.19062 1.19063 v -1.19062 -1.19063 h 1.19062 1.19063 v 1.19063 1.19062 h 1.19062 1.19063 v 1.19063 1.19062 h -1.19063 -1.19062 v 1.19063 1.19062 h 1.19062 1.19063 z m 0,-4.7625 v -1.19063 h 1.19062 1.19063 v 1.19063 1.19062 h -1.19063 -1.19062 z m 9.525,0 v -1.19063 h -1.19063 -1.19062 v 1.19063 1.19062 h 1.19062 1.19063 z m 9.525,-1.19063 v -2.38125 h -2.38125 -2.38125 v 2.38125 2.38125 h 2.38125 2.38125 z m -7.14375,-5.95312 v -3.57188 h -3.57188 -3.57187 v 3.57188 3.57187 h 3.57187 3.57188 z m -4.7625,0 v -1.19063 h 1.19062 1.19063 v 1.19063 1.19062 h -1.19063 -1.19062 z m -7.14375,0 v -1.19063 h 1.19062 1.19063 v -1.19062 -1.19063 h -1.19063 -1.19062 v 1.19063 1.19062 h -2.38125 -2.38125 v 1.19063 1.19062 h 2.38125 2.38125 z m 19.05,0 v -1.19063 h -1.19063 -1.19062 v 1.19063 1.19062 h 1.19062 1.19063 z m -50.00625,-2.38125 v -1.19063 h 1.19062 1.19063 v -1.19062 -1.19063 h -1.19063 -1.19062 v 1.19063 1.19062 h -1.19063 -1.19062 v -2.38125 -2.38125 h 2.38125 2.38125 v -1.19062 -1.19063 h 2.38125 2.38125 v 1.19063 1.19062 h -1.19063 -1.19062 v 2.38125 2.38125 h 3.57187 3.57188 v 1.19063 1.19062 h 1.19062 1.19063 v -1.19062 -1.19063 h 1.19062 1.19063 v -1.19062 -1.19063 h 1.19062 1.19063 v -1.19062 -1.19063 h 2.38125 2.38125 v 1.19063 1.19062 h -1.19063 -1.19062 v 1.19063 1.19062 h 1.19062 1.19063 v -1.19062 -1.19063 h 1.19062 1.19063 v 1.19063 1.19062 h 1.19062 1.19063 v -1.19062 -1.19063 h -1.19063 -1.19062 v -1.19062 -1.19063 h 1.19062 1.19063 v -1.19062 -1.19063 h 1.19062 1.19063 v 2.38125 2.38125 h 2.38125 2.38125 v -1.19062 -1.19063 h -1.19063 -1.19062 v -1.19062 -1.19063 h 2.38125 2.38125 v -1.19062 -1.19063 h 1.19062 1.19063 v 1.19063 1.19062 h 1.19062 1.19063 v 1.19063 1.19062 h 1.19062 1.19063 v -2.38125 -2.38125 h 1.19062 1.19063 v 2.38125 2.38125 h 1.19062 1.19063 v -3.57187 -3.57188 h -1.19063 -1.19062 v -1.19062 -1.19063 h -1.19063 -1.19062 v -2.38125 -2.38125 h -2.38125 -2.38125 v -1.19062 -1.19063 h -1.19063 -1.19062 v 1.19063 1.19062 h -2.38125 -2.38125 v 1.19063 1.19062 h -1.19063 -1.19062 v -1.19062 -1.19063 h -1.19063 -1.19062 v -1.19062 -1.19063 h -1.19063 -1.19062 v -1.19062 -1.19063 h -1.19063 -1.19062 v -1.19062 -1.19063 h -2.38125 -2.38125 v -1.19062 -1.19063 h 2.38125 2.38125 v -2.38125 -2.38125 h 4.7625 4.7625 v -1.19062 -1.19063 h 1.19062 1.19063 v 1.19063 1.19062 h 2.38125 2.38125 v 1.19063 1.19062 h -1.19063 -1.19062 v 1.19063 1.19062 h -2.38125 -2.38125 v 1.19063 1.19062 h -1.19063 -1.19062 v -1.19062 -1.19063 h -1.19063 -1.19062 v -1.19062 -1.19063 h -1.19063 -1.19062 v 1.19063 1.19062 h 1.19062 1.19063 v 1.19063 1.19062 h 1.19062 1.19063 v 1.19063 1.19062 h 2.38125 2.38125 v -1.19062 -1.19063 h 1.19062 1.19063 v -1.19062 -1.19063 h 1.19062 1.19063 v -1.19062 -1.19063 h 1.19062 1.19063 v -1.19062 -1.19063 h -1.19063 -1.19062 v -1.19062 -1.19063 h -1.19063 -1.19062 v -1.19062 -1.19063 h -2.38125 -2.38125 v 1.19063 1.19062 h -3.57188 -3.57187 v -1.19062 -1.19063 h 1.19062 1.19063 v -1.19062 -1.19063 h 1.19062 1.19063 v -1.19062 -1.19063 h -1.19063 -1.19062 v -2.38125 -2.38125 h 1.19062 1.19063 v -1.19062 -1.19063 h -1.19063 -1.19062 v -1.19062 -1.19063 h -1.19063 -1.19062 v -1.19062 -1.19063 h -1.19063 -1.19062 v 1.19063 1.19062 h 1.19062 1.19063 v 4.7625 4.7625 h 1.19062 1.19063 v 1.19063 1.19062 h -2.38125 -2.38125 v 2.38125 2.38125 h -2.38125 -2.38125 v -1.19062 -1.19063 h -2.38125 -2.38125 v 1.19063 1.19062 h 1.19062 1.19063 v 1.19063 1.19062 h -1.19063 -1.19062 v 2.38125 2.38125 h 1.19062 1.19063 v 1.19063 1.19062 h -2.38125 -2.38125 v -1.19062 -1.19063 h -1.19063 -1.19062 v -1.19062 -1.19063 h 1.19062 1.19063 v -1.19062 -1.19063 h -1.19063 -1.19062 v 1.19063 1.19062 h -1.19063 -1.19062 v 1.19063 1.19062 h -1.19063 -1.19062 v -2.38125 -2.38125 h 1.19062 1.19063 v -1.19062 -1.19063 h -1.19063 -1.19062 v -1.19062 -1.19063 h -1.19063 -1.19062 v -1.19062 -1.19063 h -1.19063 -1.19062 v 1.19063 1.19062 h -2.38125 -2.38125 v 3.57188 3.57187 h -1.19063 -1.19062 v -1.19062 -1.19063 h -1.19063 -1.19062 v 1.19063 1.19062 h -3.57188 -3.57187 v -1.19062 -1.19063 h 1.19062 1.19063 v -1.19062 -1.19063 h -2.38125 -2.38125 v 2.38125 2.38125 h 1.19062 1.19063 v 2.38125 2.38125 h -1.19063 -1.19062 v 1.19063 1.19062 h 1.19062 1.19063 v 1.19063 1.19062 h 1.19062 1.19063 v 2.38125 2.38125 h 1.19062 1.19063 v 1.19063 1.19062 h -2.38125 -2.38125 v 1.19063 1.19062 h 4.7625 4.7625 v 1.19063 1.19062 h -1.19063 -1.19062 v 1.19063 1.19062 h 1.19062 1.19063 v 1.19063 1.19062 h 1.19062 1.19063 v 2.38125 2.38125 h 1.19062 1.19063 v 1.19063 1.19062 h 1.19062 1.19063 z m 9.525,-4.7625 v -1.19063 h 1.19062 1.19063 v -1.19062 -1.19063 h 1.19062 1.19063 v -1.19062 -1.19063 h -2.38125 -2.38125 v -1.19062 -1.19063 h -1.19063 -1.19062 v 1.19063 1.19062 h -1.19063 -1.19062 v -2.38125 -2.38125 h 1.19062 1.19063 v -1.19062 -1.19063 h -1.19063 -1.19062 v -1.19062 -1.19063 h -1.19063 -1.19062 v 2.38125 2.38125 h -1.19063 -1.19062 v 1.19063 1.19062 h -1.19063 -1.19062 v 3.57188 3.57187 h -1.19063 -1.19062 v -1.19062 -1.19063 h -1.19063 -1.19062 v -1.19062 -1.19063 h 1.19062 1.19063 v -1.19062 -1.19063 h -1.19063 -1.19062 v -1.19062 -1.19063 h -1.19063 -1.19062 v -1.19062 -1.19063 h 2.38125 2.38125 v -1.19062 -1.19063 h -2.38125 -2.38125 v -1.19062 -1.19063 h 2.38125 2.38125 v -1.19062 -1.19063 h -3.57188 -3.57187 v 1.19063 1.19062 h -1.19063 -1.19062 v -2.38125 -2.38125 h 1.19062 1.19063 v -1.19062 -1.19063 h 1.19062 1.19063 v -1.19062 -1.19063 h 1.19062 1.19063 v 1.19063 1.19062 h 1.19062 1.19063 v -1.19062 -1.19063 h 3.57187 3.57188 v 1.19063 1.19062 h -1.19063 -1.19062 v 1.19063 1.19062 h 3.57187 3.57188 v 1.19063 1.19062 h -1.19063 -1.19062 v 2.38125 2.38125 h 4.7625 4.7625 v 2.38125 2.38125 h 1.19062 1.19063 v -3.57187 -3.57188 h -1.19063 -1.19062 v -1.19062 -1.19063 h 1.19062 1.19063 v 1.19063 1.19062 h 1.19062 1.19063 v 1.19063 1.19062 h 2.38125 2.38125 v -1.19062 -1.19063 h -1.19063 -1.19062 v -1.19062 -1.19063 h 1.19062 1.19063 v 1.19063 1.19062 h 1.19062 1.19063 v 3.57188 3.57187 h 1.19062 1.19063 v -1.19062 -1.19063 h 1.19062 1.19063 v 1.19063 1.19062 h -1.19063 -1.19062 v 1.19063 1.19062 h -2.38125 -2.38125 v -2.38125 -2.38125 h -2.38125 -2.38125 v 1.19063 1.19062 h 1.19062 1.19063 v 1.19063 1.19062 h -1.19063 -1.19062 v 1.19063 1.19062 h -1.19063 -1.19062 v 2.38125 2.38125 h -1.19063 -1.19062 v 1.19063 1.19062 h -2.38125 -2.38125 z m -11.90625,-9.525 v -1.19063 h -1.19063 -1.19062 v 1.19063 1.19062 h 1.19062 1.19063 z m 14.2875,0 v -1.19063 h -1.19063 -1.19062 v 1.19063 1.19062 h 1.19062 1.19063 z m 7.14375,0 v -1.19063 h -1.19063 -1.19062 v 1.19063 1.19062 h 1.19062 1.19063 z m -16.66875,-7.14375 v -1.19063 h -2.38125 -2.38125 v 1.19063 1.19062 h 2.38125 2.38125 z m -9.525,-7.14375 v -1.19063 h -1.19063 -1.19062 v 1.19063 1.19062 h 1.19062 1.19063 z m 4.7625,0 v -1.19063 h -1.19063 -1.19062 v 1.19063 1.19062 h 1.19062 1.19063 z m 26.19375,21.43125 v -1.19063 h -1.19063 -1.19062 v -1.19062 -1.19063 h 2.38125 2.38125 v 2.38125 2.38125 h -1.19063 -1.19062 z m 7.14375,-2.38125 v -1.19063 h 1.19062 1.19063 v -2.38125 -2.38125 h 1.19062 1.19063 v -1.19062 -1.19063 h 1.19062 1.19063 v -1.19062 -1.19063 h 1.19062 1.19063 v 2.38125 2.38125 h -1.19063 -1.19062 v 1.19063 1.19062 h -1.19063 -1.19062 v 1.19063 1.19062 h -1.19063 -1.19062 v 1.19063 1.19062 h -1.19063 -1.19062 z m 11.90625,-2.38125 v -1.19063 h 1.19062 1.19063 v 1.19063 1.19062 h -1.19063 -1.19062 z m -33.3375,-11.90625 v -1.19063 h 1.19062 1.19063 v 1.19063 1.19062 h -1.19063 -1.19062 z m 7.14375,-7.14375 v -1.19063 h 1.19062 1.19063 v -1.19062 -1.19063 h 1.19062 1.19063 v 1.19063 1.19062 h -1.19063 -1.19062 v 1.19063 1.19062 h -1.19063 -1.19062 z m -16.66875,-5.95313 v -2.38125 h 1.19062 1.19063 v 2.38125 2.38125 h -1.19063 -1.19062 z m -19.05,25.00313 v -1.19063 h -1.19063 -1.19062 v 1.19063 1.19062 h 1.19062 1.19063 z m 2.38125,-7.14375 v -1.19063 h -1.19063 -1.19062 v 1.19063 1.19062 h 1.19062 1.19063 z m 64.29375,-14.2875 v -1.19063 h 1.19062 1.19063 v -1.19062 -1.19063 h -1.19063 -1.19062 v 1.19063 1.19062 h -1.19063 -1.19062 v 1.19063 1.19062 h 1.19062 1.19063 z m -47.625,-11.90625 v -1.19063 h -1.19063 -1.19062 v 1.19063 1.19062 h 1.19062 1.19063 z m 4.7625,0 v -1.19063 h -1.19063 -1.19062 v 1.19063 1.19062 h 1.19062 1.19063 z m 7.14375,-9.525 v -1.19063 h -1.19063 -1.19062 v 1.19063 1.19062 h 1.19062 1.19063 z m -9.525,69.05625 v -3.57188 h 2.38125 2.38125 v 1.19063 1.19062 h -1.19063 -1.19062 v 2.38125 2.38125 h -1.19063 -1.19062 z m 7.14375,-58.34063 v -2.38125 h 1.19062 1.19063 v 2.38125 2.38125 h -1.19063 -1.19062 z m -33.337503,-8.33437 v -8.33438 h 8.334373 8.33438 v 8.33438 8.33437 h -8.33438 -8.334373 z m 14.287503,0 v -5.95313 h -5.95313 -5.95312 v 5.95313 5.95312 h 5.95312 5.95313 z m -9.525,0 v -3.57188 h 3.57187 3.57188 v 3.57188 3.57187 h -3.57188 -3.57187 z m 38.1,7.14375 v -1.19063 h 1.19062 1.19063 v 1.19063 1.19062 h -1.19063 -1.19062 z m 19.05,-7.14375 v -8.33438 h 8.33437 8.33438 v 8.33438 8.33437 h -8.33438 -8.33437 z m 14.2875,0 v -5.95313 h -5.95313 -5.95312 v 5.95313 5.95312 h 5.95312 5.95313 z m -9.525,0 v -3.57188 h 3.57187 3.57188 v 3.57188 3.57187 h -3.57188 -3.57187 z m -47.625,-4.7625 v -1.19063 h 1.19062 1.19063 v 1.19063 1.19062 h -1.19063 -1.19062 z m 4.7625,-1.19063 v -2.38125 h 1.19062 1.19063 v 2.38125 2.38125 h -1.19063 -1.19062 z"
       id="path900" />
  </g>
</svg>
